PathFileType	4	(X/Y/Z)	/Users/itak/Documents/Research/Walk-IL/dataset/trc/00504_00183.trc
DataRate	CameraRate	NumFrames	NumMarkers	Units	OrigDataRate	OrigDataStartFrame	OrigNumFrames
100.000000	100.000000	4	53	mm	100.000000	449	719
Frame#	Time	RPSI			LPSI			L3			STRN			T10			C7			CLAV			RBAK			LBAK			LSHO			LUPA			LAEL			LAOL			LWTS			LWPS			LFRA			LIFD			LHPS			LHTS			RSHO			RUPA			RAEL			RAOL			RWTS			RWPS			RFRA			RIFD			RHTS			RHPS			RBHD			LFHD			RFHD			LBHD			LHIP			RHIP			RASI			LASI			LKNE			LTHI			LANK			LTIP			LTOE			LMT1			LMT5			LHEE			RKNE			RTHI			RANK			RTIP			RTOE			RMT1			RMT5			RHEE			
		X1	Y1	Z1	X2	Y2	Z2	X3	Y3	Z3	X4	Y4	Z4	X5	Y5	Z5	X6	Y6	Z6	X7	Y7	Z7	X8	Y8	Z8	X9	Y9	Z9	X10	Y10	Z10	X11	Y11	Z11	X12	Y12	Z12	X13	Y13	Z13	X14	Y14	Z14	X15	Y15	Z15	X16	Y16	Z16	X17	Y17	Z17	X18	Y18	Z18	X19	Y19	Z19	X20	Y20	Z20	X21	Y21	Z21	X22	Y22	Z22	X23	Y23	Z23	X24	Y24	Z24	X25	Y25	Z25	X26	Y26	Z26	X27	Y27	Z27	X28	Y28	Z28	X29	Y29	Z29	X30	Y30	Z30	X31	Y31	Z31	X32	Y32	Z32	X33	Y33	Z33	X34	Y34	Z34	X35	Y35	Z35	X36	Y36	Z36	X37	Y37	Z37	X38	Y38	Z38	X39	Y39	Z39	X40	Y40	Z40	X41	Y41	Z41	X42	Y42	Z42	X43	Y43	Z43	X44	Y44	Z44	X45	Y45	Z45	X46	Y46	Z46	X47	Y47	Z47	X48	Y48	Z48	X49	Y49	Z49	X50	Y50	Z50	X51	Y51	Z51	X52	Y52	Z52	X53	Y53	Z53	

450	4.49	-107.8879318237305	939.8466186523438	-6.350314140319824	-56.57229232788086	940.5508422851562	-118.7228775024414	-83.73056030273438	1012.139465332031	-71.14337158203125	120.5163116455078	1170.57958984375	-1.387835621833801	-101.7014389038086	1115.685424804688	-75.31589508056641	-57.16636276245117	1346.08203125	-53.81225967407227	87.66873931884766	1266.217651367188	-9.989362716674805	-133.3331756591797	1224.2431640625	8.638086318969727	-55.05350494384766	1294.557861328125	-146.2227935791016	58.4165153503418	1340.116943359375	-186.0059509277344	60.02197647094727	1218.179931640625	-255.2275085449219	64.23347473144531	1010.549865722656	-293.4103393554688	-25.59906578063965	1003.856140136719	-252.1290130615234	117.5251312255859	810.2623291015625	-250.0948028564453	53.13074493408203	789.0313110351562	-315.4970703125	74.12477111816406	925.7633056640625	-298.5146179199219	101.2312545776367	654.1569213867188	-256.6261291503906	68.23464965820312	731.39892578125	-308.4642333984375	124.5622787475586	734.0337524414062	-273.9568481445312	-52.50641632080078	1333.869384765625	104.4557037353516	-91.74803924560547	1266.925415039062	147.549560546875	-142.4498748779297	1004.016784667969	170.4865264892578	-165.915283203125	994.4586791992188	109.0400009155273	-73.06441497802734	788.8222045898438	193.2737884521484	-163.0166168212891	779.1730346679688	178.5219879150391	-150.5847625732422	950.4586181640625	175.5324249267578	-93.64581298828125	630.5146484375	181.9096374511719	-90.26126098632812	694.4169311523438	213.1658935546875	-155.838623046875	703.23388671875	187.5823211669922	-49.98462677001953	1494.206420898438	37.89169311523438	124.6174392700195	1562.681884765625	-31.0713062286377	67.80789947509766	1550.65869140625	82.21434783935547	8.183406829833984	1505.361328125	-109.8020935058594	88.74981689453125	864.5675659179688	-202.2335662841797	-48.91089248657227	847.6913452148438	152.5165557861328	62.96063232421875	894.7283935546875	121.4529647827148	153.1150665283203	896.962646484375	-104.7586288452148	5.118829250335693	452.7561340332031	-173.5057830810547	64.46121215820312	602.0679321289062	-179.3232879638672	-206.5503845214844	69.92578125	-233.884033203125	-65.55815887451172	314.9931640625	-199.1655578613281	-61.08216857910156	34.67862319946289	-94.87502288818359	-142.0084381103516	46.48094940185547	-100.3034591674805	-106.4696731567383	42.98385620117188	-195.2760009765625	-273.8939514160156	81.70631408691406	-197.5108032226562	81.2579345703125	480.0601196289062	150.1019592285156	-3.244965553283691	725.0999755859375	170.605712890625	126.0150299072266	44.07321166992188	140.3331298828125	129.5210113525391	339.8538208007812	157.1318054199219	317.7177429199219	66.86311340332031	202.458251953125	282.9926452636719	58.59009170532227	136.0366668701172	215.889892578125	51.70298004150391	206.9978179931641	108.194694519043	29.64528846740723	72.50251007080078	
451	4.5	-102.0834121704102	940.8994750976562	-2.475513696670532	-50.53855133056641	941.0796508789062	-114.7477645874023	-77.87746429443359	1012.583984375	-66.96428680419922	125.9291534423828	1171.121948242188	3.355406999588013	-96.03786468505859	1116.061279296875	-70.83191680908203	-52.02070236206055	1346.513793945312	-49.12567901611328	93.01910400390625	1266.79443359375	-5.216855049133301	-127.9940795898438	1224.509887695312	13.11637687683105	-49.73323059082031	1295.119995117188	-141.5572967529297	63.73345947265625	1340.805908203125	-181.2268371582031	64.75238037109375	1218.853881835938	-250.4518737792969	67.60950469970703	1011.242248535156	-288.4609680175781	-22.03415489196777	1004.997863769531	-246.5638275146484	120.1600952148438	810.64990234375	-245.40087890625	55.26308822631836	789.6961059570312	-310.408203125	76.94821929931641	926.3916625976562	-293.6342468261719	102.9756393432617	654.6324462890625	-251.7553558349609	70.06834411621094	731.9984130859375	-303.4400939941406	126.5502777099609	734.3701782226562	-269.2171936035156	-47.40571975708008	1334.236938476562	109.1261291503906	-86.61518859863281	1267.202270507812	152.1540985107422	-136.8627471923828	1004.225891113281	174.7687835693359	-160.2556304931641	994.7882690429688	113.2644424438477	-67.65692901611328	788.8259887695312	196.9373321533203	-157.6892700195312	779.392822265625	182.2901000976562	-144.9961090087891	950.6740112304688	179.7022705078125	-88.53793334960938	630.6233520507812	185.0258636474609	-85.01506805419922	694.3949584960938	216.5300598144531	-150.5965270996094	703.406494140625	191.0495910644531	-45.77622222900391	1494.560302734375	42.07889175415039	128.1916351318359	1563.888549804688	-27.50995445251465	71.62422943115234	1552.107055664062	85.92974853515625	11.97774410247803	1505.170776367188	-105.6670684814453	94.81535339355469	864.5529174804688	-197.7960510253906	-43.61128616333008	848.7393188476562	156.5300750732422	68.36652374267578	895.4710083007812	125.8980178833008	158.8522338867188	897.0263671875	-100.1329116821289	10.49423885345459	452.8409118652344	-168.9387359619141	70.33042907714844	602.03125	-174.6020660400391	-205.1905517578125	72.7705078125	-233.662109375	-61.07965850830078	315.7559204101562	-196.1613311767578	-61.01587295532227	34.67154312133789	-94.77275848388672	-141.4466094970703	47.18891906738281	-100.0659484863281	-105.8357543945312	43.52662658691406	-195.1343383789062	-272.3291320800781	85.40592956542969	-197.2472534179688	86.02761840820312	480.4043273925781	153.2992401123047	1.86265242099762	725.927001953125	174.4158325195312	126.8042907714844	44.19948577880859	140.5786743164062	133.3623962402344	339.7650756835938	159.2537689208984	319.4561462402344	63.09128189086914	202.9528503417969	284.3101196289062	56.3983039855957	136.3760070800781	216.9546203613281	50.17947387695312	207.1485595703125	108.7095108032227	30.39183044433594	72.72456359863281	
452	4.51	-96.24569702148438	941.9627685546875	1.309277534484863	-44.42780303955078	941.674072265625	-110.8547515869141	-71.96086120605469	1013.120483398438	-62.88695907592773	131.2942962646484	1171.782592773438	8.209968566894531	-90.29896545410156	1116.560668945312	-66.43954467773438	-46.85892868041992	1347.04736328125	-44.45845413208008	98.33631896972656	1267.480224609375	-0.3565183579921722	-122.6691436767578	1224.890258789062	17.49503517150879	-44.35853576660156	1295.805541992188	-136.9119415283203	69.16384887695312	1341.619384765625	-176.3506622314453	69.68044281005859	1219.669555664062	-245.5956268310547	71.10944366455078	1012.089782714844	-283.3907775878906	-18.35078048706055	1006.322570800781	-240.9001922607422	122.9357986450195	811.218017578125	-240.5442962646484	57.54638671875	790.4860229492188	-305.1482543945312	79.89002227783203	927.17578125	-288.6250915527344	104.9116592407227	655.2628173828125	-246.6130218505859	72.06240844726562	732.7440185546875	-298.2106628417969	128.6756286621094	734.8502197265625	-264.2726135253906	-42.38117599487305	1334.742797851562	113.7717208862305	-81.57567596435547	1267.62890625	156.7392425537109	-131.2707672119141	1004.569213867188	179.1052398681641	-154.5918579101562	995.2021484375	117.5436096191406	-62.08425903320312	789.0262451171875	200.7586364746094	-152.1629943847656	779.7278442382812	186.2048492431641	-139.3549041748047	951.0090942382812	183.9420623779297	-83.11644744873047	630.9000854492188	188.4004821777344	-79.51490020751953	694.564453125	220.1155395507812	-145.1024932861328	703.7015380859375	194.7216033935547	-41.56330490112305	1495.019653320312	46.3053092956543	131.7617645263672	1565.164428710938	-23.95693397521973	75.44816589355469	1553.654296875	89.64622497558594	15.81203365325928	1505.087158203125	-101.5388107299805	101.0136642456055	864.644287109375	-193.3069458007812	-38.46406555175781	849.74560546875	160.4331817626953	73.72386169433594	896.321044921875	130.4475860595703	164.6010589599609	897.2266235351562	-95.38180541992188	16.38518524169922	452.8885192871094	-164.1130676269531	76.58324432373047	602.0440673828125	-169.6673431396484	-203.5710144042969	75.87384796142578	-233.4204406738281	-56.15212249755859	316.5607299804688	-192.9987640380859	-60.95268630981445	34.66682052612305	-94.67253875732422	-140.790771484375	47.98197937011719	-99.80776977539062	-105.0937652587891	44.09828948974609	-195.0205383300781	-270.4567260742188	89.45735168457031	-196.9572906494141	90.53067016601562	480.7071838378906	156.5355834960938	6.781145572662354	726.7252807617188	178.2296447753906	127.5066070556641	44.29238891601562	140.8558654785156	136.9090118408203	339.6556091308594	161.4313201904297	320.9833068847656	59.70670700073242	203.3239135742188	285.413818359375	54.51314926147461	136.6527709960938	217.9209747314453	48.82167053222656	207.3076324462891	109.1325912475586	31.07312774658203	73.00722503662109	
453	4.52	-90.37623596191406	943.0018920898438	5.04717493057251	-38.27512359619141	942.318603515625	-106.9951324462891	-66.00933074951172	1013.72509765625	-58.87073135375977	136.6065368652344	1172.541137695312	13.16043567657471	-84.51412963867188	1117.159423828125	-62.11289215087891	-41.69564437866211	1347.660888671875	-39.80906677246094	103.6111297607422	1268.253784179688	4.574546337127686	-117.3564224243164	1225.35693359375	21.80717277526855	-38.95307159423828	1296.5830078125	-132.2817077636719	74.67388153076172	1342.523803710938	-171.3968353271484	74.78338623046875	1220.581298828125	-240.6690673828125	74.73739624023438	1013.046508789062	-278.2304382324219	-14.54404258728027	1007.774291992188	-235.1665191650391	125.8590774536133	811.9287719726562	-235.5486907958984	59.99619674682617	791.3551025390625	-299.7367858886719	82.96817016601562	928.0700073242188	-283.5116577148438	107.0389862060547	656.0115966796875	-241.1982269287109	74.23037719726562	733.5858764648438	-292.7828369140625	130.968017578125	735.4299926757812	-259.1326599121094	-37.42661666870117	1335.3603515625	118.4011611938477	-76.61685180664062	1268.175537109375	161.3141784667969	-125.7012405395508	1005.021484375	183.4974670410156	-148.9494781494141	995.6774291992188	121.8761291503906	-56.35575103759766	789.4068603515625	204.7420654296875	-146.4504547119141	780.1486206054688	190.2667541503906	-133.6918640136719	951.43994140625	188.2516937255859	-77.36500549316406	631.3223876953125	192.0422821044922	-73.75270080566406	694.9093627929688	223.9268341064453	-139.3591918945312	704.0933227539062	198.6020812988281	-37.35044479370117	1495.564575195312	50.56254959106445	135.3282012939453	1566.489624023438	-20.41599082946777	79.28000640869141	1555.27880859375	93.35647583007812	19.67094802856445	1505.084228515625	-97.41565704345703	107.3044891357422	864.8460693359375	-188.7713317871094	-33.44999694824219	850.6660766601562	164.2562713623047	79.05719757080078	897.22705078125	135.0861511230469	170.3529510498047	897.5592651367188	-90.53226470947266	22.83786773681641	452.8639221191406	-159.0540466308594	83.21319580078125	602.0985107421875	-164.5619354248047	-201.6528472900391	79.235107421875	-233.1376037597656	-50.74077224731445	317.3983764648438	-189.6804809570312	-60.89142990112305	34.66121292114258	-94.57556915283203	-140.0242614746094	48.86053085327148	-99.52386474609375	-104.2343444824219	44.69571304321289	-194.9343872070312	-268.23828125	93.87324523925781	-196.6147155761719	94.70460510253906	480.9336547851562	159.7434387207031	11.55440330505371	727.4534912109375	182.0663757324219	128.1189880371094	44.35647964477539	141.1521759033203	140.1462097167969	339.498779296875	163.6413116455078	322.2981872558594	56.69875717163086	203.6156921386719	286.3138732910156	52.9149284362793	136.8926239013672	218.7820739746094	47.61733245849609	207.4866485595703	109.4875106811523	31.67676544189453	73.32525634765625	
